# xmcd
#
# Track frame offsets: 
#        150
#        14960
#        29817
#        44925
#        63874
#        78011
#        101230
#        115960
#        130660
#        143228
#        159957
#        173055
#        187129
#        203347
#        215973
#        234344
#        245517
#        258994
#        276314
#        295213
#
# Disc length: 4108 seconds
#
# Revision: 1
# Processed by: cddbd v1.5.2PL0 Copyright (c) Steve Scherf et al.
# Submitted via: ExactAudioCopy v1.0b3
#
DISCID=34100a14
DTITLE=Asleep At The Wheel - Texas Gold and Wheelin' And Dealin' (1975, 
DTITLE=76)
DYEAR=2002
DGENRE=Western Swing
TTITLE0=The Letter That Johnny Walker Read
TTITLE1=Fat Boy Rag
TTITLE2=Runnin' After Fools
TTITLE3=Let Me Go Home, Whiskey
TTITLE4=Nothing Takes the Place of You
TTITLE5=Roll 'Em Floyd
TTITLE6=Tonight the Bartender Is On the Wrong Side of the Bar
TTITLE7=Bump Bounce Boogie
TTITLE8=Where No One Stands Alone
TTITLE9=Trouble in Mind
TTITLE10=Route 66
TTITLE11=Miles and Miles of Texas
TTITLE12=The Trouble With Loving Today
TTITLE13=Shout Wa Hey
TTITLE14=Blues for Dixie
TTITLE15=Cajun Stripper
TTITLE16=If I Can't Love You
TTITLE17=Lost Mind
TTITLE18=They Raided the Joint
TTITLE19=We've Gone as Far as We Can Go
EXTD=YEAR: 1975
EXTT0=
EXTT1=
EXTT2=
EXTT3=
EXTT4=
EXTT5=
EXTT6=
EXTT7=
EXTT8=
EXTT9=
EXTT10=
EXTT11=
EXTT12=
EXTT13=
EXTT14=
EXTT15=
EXTT16=
EXTT17=
EXTT18=
EXTT19=
PLAYORDER=
